<svg width="29" height="10" viewBox="0 0 29 10" fill="none" xmlns="http://www.w3.org/2000/svg">
<path d="M2.12109 8.08008H6.16406V9H0.990234V0.46875H2.12109V8.08008ZM11.1914 9C11.1289 8.875 11.0781 8.65234 11.0391 8.33203C10.5352 8.85547 9.93359 9.11719 9.23438 9.11719C8.60938 9.11719 8.0957 8.94141 7.69336 8.58984C7.29492 8.23438 7.0957 7.78516 7.0957 7.24219C7.0957 6.58203 7.3457 6.07031 7.8457 5.70703C8.34961 5.33984 9.05664 5.15625 9.9668 5.15625H11.0215V4.6582C11.0215 4.2793 10.9082 3.97852 10.6816 3.75586C10.4551 3.5293 10.1211 3.41602 9.67969 3.41602C9.29297 3.41602 8.96875 3.51367 8.70703 3.70898C8.44531 3.9043 8.31445 4.14062 8.31445 4.41797H7.22461C7.22461 4.10156 7.33594 3.79688 7.55859 3.50391C7.78516 3.20703 8.08984 2.97266 8.47266 2.80078C8.85938 2.62891 9.2832 2.54297 9.74414 2.54297C10.4746 2.54297 11.0469 2.72656 11.4609 3.09375C11.875 3.45703 12.0898 3.95898 12.1055 4.59961V7.51758C12.1055 8.09961 12.1797 8.5625 12.3281 8.90625V9H11.1914ZM9.39258 8.17383C9.73242 8.17383 10.0547 8.08594 10.3594 7.91016C10.6641 7.73438 10.8848 7.50586 11.0215 7.22461V5.92383H10.1719C8.84375 5.92383 8.17969 6.3125 8.17969 7.08984C8.17969 7.42969 8.29297 7.69531 8.51953 7.88672C8.74609 8.07812 9.03711 8.17383 9.39258 8.17383ZM19.1719 5.90039C19.1719 6.86914 18.9492 7.64844 18.5039 8.23828C18.0586 8.82422 17.4609 9.11719 16.7109 9.11719C15.9102 9.11719 15.291 8.83398 14.8535 8.26758L14.8008 9H13.8047V0H14.8887V3.35742C15.3262 2.81445 15.9297 2.54297 16.6992 2.54297C17.4688 2.54297 18.0723 2.83398 18.5098 3.41602C18.9512 3.99805 19.1719 4.79492 19.1719 5.80664V5.90039ZM18.0879 5.77734C18.0879 5.03906 17.9453 4.46875 17.6602 4.06641C17.375 3.66406 16.9648 3.46289 16.4297 3.46289C15.7148 3.46289 15.2012 3.79492 14.8887 4.45898V7.20117C15.2207 7.86523 15.7383 8.19727 16.4414 8.19727C16.9609 8.19727 17.3652 7.99609 17.6543 7.59375C17.9434 7.19141 18.0879 6.58594 18.0879 5.77734ZM23.1738 9.11719C22.3145 9.11719 21.6152 8.83594 21.0762 8.27344C20.5371 7.70703 20.2676 6.95117 20.2676 6.00586V5.80664C20.2676 5.17773 20.3867 4.61719 20.625 4.125C20.8672 3.62891 21.2031 3.24219 21.6328 2.96484C22.0664 2.68359 22.5352 2.54297 23.0391 2.54297C23.8633 2.54297 24.5039 2.81445 24.9609 3.35742C25.418 3.90039 25.6465 4.67773 25.6465 5.68945V6.14062H21.3516C21.3672 6.76562 21.5488 7.27148 21.8965 7.6582C22.248 8.04102 22.6934 8.23242 23.2324 8.23242C23.6152 8.23242 23.9395 8.1543 24.2051 7.99805C24.4707 7.8418 24.7031 7.63477 24.9023 7.37695L25.5645 7.89258C25.0332 8.70898 24.2363 9.11719 23.1738 9.11719ZM23.0391 3.43359C22.6016 3.43359 22.2344 3.59375 21.9375 3.91406C21.6406 4.23047 21.457 4.67578 21.3867 5.25H24.5625V5.16797C24.5312 4.61719 24.3828 4.19141 24.1172 3.89062C23.8516 3.58594 23.4922 3.43359 23.0391 3.43359ZM28.084 9H27V0H28.084V9Z" fill="black" fill-opacity="0.5"/>
</svg>
